<svg xmlns="http://www.w3.org/2000/svg" height="24" viewBox="0 0 24.135593 24" width="24.136" fill="#ecf0f1"><path d="M.136 0h24v24h-24z" fill="none"/><path d="M19.35 10.65A7.49 7.49 0 0 0 12 4.61c-2.89 0-5.4 1.64-6.65 4.04A5.994 5.994 0 0 0 0 14.61c0 3.31 2.69 6 6 6h13c2.76 0 5-2.24 5-5 0-2.64-2.05-4.78-4.65-4.96z" fill="#bdc3c7"/><path d="M19.486 10.04A7.49 7.49 0 0 0 12.136 4c-2.89 0-5.4 1.64-6.65 4.04A5.994 5.994 0 0 0 .136 14c0 3.31 2.69 6 6 6h13c2.76 0 5-2.24 5-5 0-2.64-2.05-4.78-4.65-4.96z"/></svg>