<svg xmlns="http://www.w3.org/2000/svg" version="1" width="342.303" height="672.696" viewBox="0 0 256.72751 504.52212"><path d="M253.707 503.639c-74.083-.907-148.077 2.847-253.707-.61C4.806 374.576 5.596 143.212.094.852 72.258 2.005 223.552 1.182 256.728 0c-5.881 139.788-3.492 367.79-3.021 503.639z" fill="#ffe082" fill-rule="evenodd"/><path d="M256.727-8C223.55-6.818 72.257-5.995.094-7.146c.102 4.993.065 9.021.248 13.74a8.54 8.54 0 0 0 2.096.311C41.58 6.254 84.16 4.738 123.013 4.524c52.753-.082 132.247 2.398 132.247 2.398v-.018l1.158.065c.153-5.503.278-6.549.309-14.969z" fill="#ffd54f"/><path d="M-1.321-26.92c-5.22-.002-9.453 6.462-9.453 14.435 0 7.974 4.232 14.437 9.453 14.436C37.822 1.3 80.402-.215 119.254-.429 172.007-.513 251.5 1.968 251.5 1.968v-.02c13.551-.018 14.229-6.475 14.23-14.434 0-7.972-1.749-14.905-14.252-14.436-44.126.927-88.278 3.833-132.322 3.32-41.991-.673-84.55-1.897-120.478-3.32z" fill="#ffe082"/><path d="M251.5 496.257s-79.493 2.48-132.247 2.398c-38.242-.211-80.081-1.678-118.715-2.345-.178 2.237-.35 4.461-.538 6.719 105.63 3.458 179.624-.296 253.707.61-.095-2.475-.183-4.85-.275-7.301a36.535 36.535 0 0 0-1.932-.063v-.018z" fill="#ffd54f"/><path d="M-1.321 529.946c-5.22.001-9.453-6.463-9.453-14.436s4.232-14.437 9.453-14.436c39.143.652 81.723 2.167 120.575 2.381 52.753.082 132.247-2.398 132.247-2.398v.019c13.551.018 14.229 6.475 14.23 14.434 0 7.973-1.749 14.906-14.252 14.436-44.126-.927-88.278-3.833-132.322-3.32-41.991.674-84.55 1.897-120.478 3.32z" fill="#ffe082"/></svg>